<?xml version="1.0" encoding="UTF-8" standalone="no"?>
<svg
   width="15"
   height="15"
   viewBox="0 0 15 15"
   fill="none"
   version="1.1"
   id="svg2"
   sodipodi:docname="icone_zoomout.svg"
   inkscape:version="1.3.2 (091e20e, 2023-11-25, custom)"
   xmlns:inkscape="http://www.inkscape.org/namespaces/inkscape"
   xmlns:sodipodi="http://sodipodi.sourceforge.net/DTD/sodipodi-0.dtd"
   xmlns="http://www.w3.org/2000/svg"
   xmlns:svg="http://www.w3.org/2000/svg">
  <defs
     id="defs2" />
  <sodipodi:namedview
     id="namedview2"
     pagecolor="#ffffff"
     bordercolor="#000000"
     borderopacity="0.25"
     inkscape:showpageshadow="2"
     inkscape:pageopacity="0.0"
     inkscape:pagecheckerboard="0"
     inkscape:deskcolor="#d1d1d1"
     inkscape:zoom="82.333333"
     inkscape:cx="7.4939271"
     inkscape:cy="7.5"
     inkscape:window-width="2560"
     inkscape:window-height="1494"
     inkscape:window-x="-11"
     inkscape:window-y="-11"
     inkscape:window-maximized="1"
     inkscape:current-layer="svg2" />
  <path
     fill-rule="evenodd"
     clip-rule="evenodd"
     d="M9.125 6.6875C9.125 8.03369 8.03369 9.125 6.6875 9.125C5.34131 9.125 4.25 8.03369 4.25 6.6875C4.25 5.34131 5.34131 4.25 6.6875 4.25C8.03369 4.25 9.125 5.34131 9.125 6.6875ZM8.68044 9.25493C8.13009 9.68274 7.43855 9.9375 6.6875 9.9375C4.89257 9.9375 3.4375 8.48243 3.4375 6.6875C3.4375 4.89257 4.89257 3.4375 6.6875 3.4375C8.48243 3.4375 9.9375 4.89257 9.9375 6.6875C9.9375 7.43853 9.68275 8.13006 9.25496 8.6804L11.8498 11.2752L11.2753 11.8498L8.68044 9.25493Z"
     fill="black"
     id="path1" />
  <path
     fill-rule="evenodd"
     clip-rule="evenodd"
     d="M5.0625 6.28125L8.3125 6.28125L8.3125 7.09375L5.0625 7.09375L5.0625 6.28125Z"
     fill="black"
     id="path2" />
</svg>
