<svg width="15" height="15" viewBox="0 0 15 15" fill="none" xmlns="http://www.w3.org/2000/svg">
<path fill-rule="evenodd" clip-rule="evenodd" d="M9.92443 5.21786C10.1042 5.03806 10.3958 5.03806 10.5756 5.21786C10.7554 5.39767 10.7554 5.68919 10.5756 5.869L9.29648 7.14808C9.13972 6.88428 8.92054 6.65734 8.65759 6.4847L9.92443 5.21786ZM7.97984 6.19018L9.4383 4.73173C9.88659 4.28343 10.6134 4.28344 11.0617 4.73173C11.51 5.18002 11.51 5.90684 11.0617 6.35513L9.54699 7.86984C9.55723 7.9489 9.5625 8.02938 9.5625 8.11102C9.5625 9.48214 8.37326 10.5937 6.90625 10.5937C6.09479 10.5937 5.28333 10.3362 4.68223 10.0835C4.10274 9.83986 3.71875 9.6006 3.71875 9.6006C4.0677 9.6006 4.39046 9.49579 4.65296 9.318C5.05257 9.04733 5.3125 8.60755 5.3125 8.11102C5.3125 7.01412 6.26389 6.12491 7.4375 6.12491C7.62494 6.12491 7.80671 6.14759 7.97984 6.19018ZM6.90625 9.90616C6.38752 9.90616 5.84873 9.77844 5.37156 9.61233C5.75734 9.22807 6 8.70526 6 8.11102C6 7.43685 6.59908 6.81241 7.4375 6.81241C8.27592 6.81241 8.875 7.43685 8.875 8.11102C8.875 9.05942 8.03807 9.90616 6.90625 9.90616Z" fill="black"/>
</svg>
