<?xml version="1.0" encoding="UTF-8" standalone="no"?>
<svg
   width="15"
   height="15"
   viewBox="0 0 15 15"
   fill="none"
   version="1.1"
   id="svg2"
   sodipodi:docname="icone_zoomin.svg"
   inkscape:version="1.3.2 (091e20e, 2023-11-25, custom)"
   xmlns:inkscape="http://www.inkscape.org/namespaces/inkscape"
   xmlns:sodipodi="http://sodipodi.sourceforge.net/DTD/sodipodi-0.dtd"
   xmlns="http://www.w3.org/2000/svg"
   xmlns:svg="http://www.w3.org/2000/svg">
  <defs
     id="defs2" />
  <sodipodi:namedview
     id="namedview2"
     pagecolor="#ffffff"
     bordercolor="#000000"
     borderopacity="0.25"
     inkscape:showpageshadow="2"
     inkscape:pageopacity="0.0"
     inkscape:pagecheckerboard="0"
     inkscape:deskcolor="#d1d1d1"
     inkscape:zoom="82.333333"
     inkscape:cx="7.4939271"
     inkscape:cy="7.5"
     inkscape:window-width="2560"
     inkscape:window-height="1494"
     inkscape:window-x="-11"
     inkscape:window-y="-11"
     inkscape:window-maximized="1"
     inkscape:current-layer="svg2" />
  <path
     fill-rule="evenodd"
     clip-rule="evenodd"
     d="M8.77152 6.29801C8.77152 7.66409 7.66409 8.77152 6.29801 8.77152C4.93193 8.77152 3.8245 7.66409 3.8245 6.29801C3.8245 4.93193 4.93193 3.8245 6.29801 3.8245C7.66409 3.8245 8.77152 4.93193 8.77152 6.29801ZM8.31995 8.90371C7.76155 9.33764 7.05996 9.59603 6.29801 9.59603C4.47657 9.59603 3 8.11946 3 6.29801C3 4.47657 4.47657 3 6.29801 3C8.11946 3 9.59603 4.47657 9.59603 6.29801C9.59603 7.06034 9.33738 7.76225 8.90306 8.32079L11.536 10.9538L10.953 11.5368L8.31995 8.90371Z"
     fill="black"
     id="path1" />
  <path
     fill-rule="evenodd"
     clip-rule="evenodd"
     d="M5.88715 6.71018V7.94694H6.71165V6.71018H7.9484V5.88568H6.71165V4.64893H5.88715V5.88568H4.65039L4.65039 6.71018H5.88715Z"
     fill="black"
     id="path2" />
</svg>
