<svg width="15" height="15" viewBox="0 0 15 15" fill="none" xmlns="http://www.w3.org/2000/svg">
<path fill-rule="evenodd" clip-rule="evenodd" d="M8.62407 4.5625C8.79666 4.5625 8.93657 4.70241 8.93657 4.875V6.125V8.3125H9.56157V6.125C9.56157 5.95241 9.70148 5.8125 9.87407 5.8125C10.0467 5.8125 10.1866 5.95241 10.1866 6.125V9.25C10.1866 10.4581 9.20719 11.4375 7.99907 11.4375V12.0625C9.55237 12.0625 10.8116 10.8033 10.8116 9.25V6.125C10.8116 5.60723 10.3918 5.1875 9.87407 5.1875C9.7645 5.1875 9.65931 5.2063 9.56157 5.24085V4.875C9.56157 4.35723 9.14184 3.9375 8.62407 3.9375C8.19174 3.9375 7.82775 4.23015 7.71941 4.62815C7.61254 4.58579 7.49602 4.5625 7.37407 4.5625C6.8563 4.5625 6.43657 4.98223 6.43657 5.5V8.22266L6.23811 7.82036L6.23746 7.81905C6.00624 7.35579 5.44324 7.16768 4.97997 7.39891C4.52077 7.62811 4.33192 8.18328 4.55383 8.64418L5.09796 9.99198L5.10823 10.0147C5.56899 10.9363 6.10704 11.4581 6.63926 11.744C7.16972 12.029 7.66319 12.0625 7.99907 12.0625V11.4375C7.70994 11.4375 7.33525 11.4085 6.93505 11.1935C6.53837 10.9803 6.08553 10.5674 5.67277 9.74627L5.12921 8.39986L5.11904 8.37729C5.04196 8.22286 5.10466 8.0352 5.25909 7.95812C5.41333 7.88114 5.60073 7.9436 5.67798 8.09762L6.46881 9.70074L7.06156 9.56249V8.9375H7.06157V5.5C7.06157 5.32741 7.20148 5.1875 7.37407 5.1875C7.54666 5.1875 7.68657 5.32741 7.68657 5.5V8.3125H8.31157V5.5V4.875C8.31157 4.70241 8.45148 4.5625 8.62407 4.5625Z" fill="black"/>
</svg>
